# xmcd CD database file
# Copyright (C) 1993-1998 Ti Kan
#
# Track frame offsets:
# 150
# 18480
# 33237
# 49160
# 63547
# 79237
# 93385
# 104662
# 121812
# 139802
#
# Disc length: 2060 seconds
# Submitted via: CD-Runner 7.0
#
# Revision: 1
# Processed by: cddbd v1.4b41PL1 Copyright (c) Steve Scherf et al.
#
DISCID=86080a0a
DTITLE=Crystal Gayle - Crystal Gayle's Greatest Hits
DYEAR=1900
DGENRE=
TTITLE0=Half The Way
TTITLE1=If You Ever Change Your Mind
TTITLE2=It's Like We never Said Goodbye
TTITLE3=You Never Gave Up On Me
TTITLE4=Livin' In These Troubled Times
TTITLE5=Keepin' Power
TTITLE6=The Woman In Me
TTITLE7=Too Many Lovers
TTITLE8=Take It Easy
TTITLE9=The Blue Side
EXTD=
EXTD=\n
EXTT0=
EXTT1=
EXTT2=
EXTT3=
EXTT4=
EXTT5=
EXTT6=
EXTT7=
EXTT8=
EXTT9=
PLAYORDER=
